<?xml version="1.0" standalone="no"?>
<!DOCTYPE svg PUBLIC "-//W3C//DTD SVG 20010904//EN"
 "http://www.w3.org/TR/2001/REC-SVG-20010904/DTD/svg10.dtd">
<svg version="1.0" xmlns="http://www.w3.org/2000/svg"
 width="2000.000000pt" height="1500.000000pt" viewBox="0 0 2000.000000 1500.000000"
 preserveAspectRatio="xMidYMid meet">

<g transform="translate(0.000000,1500.000000) scale(0.100000,-0.100000)"
fill="#000000" stroke="none">
<path d="M2520 8275 l0 -1775 7480 0 7480 0 0 1775 0 1775 -7480 0 -7480 0 0
-1775z m1763 869 c94 -24 194 -81 262 -149 61 -61 135 -169 135 -198 0 -13
-158 -116 -163 -106 -1 2 -13 26 -27 53 -92 183 -292 270 -510 220 -170 -38
-284 -170 -335 -388 -21 -86 -20 -524 0 -621 44 -210 182 -348 375 -375 210
-29 397 65 485 245 15 30 29 55 31 55 3 0 21 -11 42 -23 20 -13 56 -36 80 -51
l43 -27 -33 -62 c-19 -38 -64 -94 -113 -143 -132 -133 -259 -184 -462 -184
-306 0 -521 148 -624 430 -49 134 -63 241 -63 455 1 157 5 208 23 295 74 346
258 542 556 591 70 11 223 3 298 -17z m1551 -4 c205 -52 356 -190 446 -406 45
-109 69 -230 77 -384 10 -235 -22 -420 -104 -590 -59 -123 -169 -238 -282
-294 -201 -102 -476 -104 -675 -6 -256 126 -396 419 -396 825 0 494 229 821
612 875 88 12 231 3 322 -20z m1666 -24 c147 -38 270 -122 355 -241 57 -80 91
-155 122 -275 34 -129 43 -396 20 -545 -54 -338 -221 -546 -495 -616 -67 -17
-112 -19 -424 -19 l-348 0 0 861 0 861 353 -5 c289 -3 364 -7 417 -21z m1930
-71 l0 -95 -420 0 -420 0 0 -285 0 -285 395 0 395 0 0 -95 0 -95 -395 0 -395
0 0 -295 0 -295 420 0 420 0 0 -90 0 -90 -525 0 -525 0 0 860 0 860 525 0 525
0 0 -95z m545 -327 c76 -233 181 -570 234 -749 53 -179 100 -326 106 -328 5
-1 51 134 101 301 50 167 157 504 238 751 l147 447 104 0 c81 0 105 -3 105
-13 0 -13 -505 -1522 -551 -1649 l-21 -58 -127 0 -126 0 -283 848 c-155 466
-282 853 -282 860 0 9 29 12 108 12 l108 0 139 -422z m1973 245 c34 -98 169
-485 300 -861 l239 -683 -111 3 -111 3 -84 248 -83 247 -348 0 -348 0 -83
-246 c-45 -135 -87 -248 -94 -250 -6 -3 -54 -3 -107 -2 l-96 3 259 740 c142
407 277 793 300 858 l41 117 132 0 132 0 62 -177z m992 -453 c5 -624 5 -625
28 -690 57 -157 136 -220 302 -241 98 -12 207 1 281 32 91 39 158 137 191 279
7 28 12 276 15 648 l5 603 101 -3 102 -3 3 -470 c4 -683 -11 -853 -89 -1013
-62 -126 -184 -214 -341 -246 -103 -21 -306 -21 -401 0 -159 36 -261 113 -327
248 -73 149 -73 144 -77 854 l-4 633 103 -3 103 -3 5 -625z m1680 -140 l0
-770 365 0 365 0 0 -90 0 -90 -470 0 -470 0 0 860 0 860 105 0 105 0 0 -770z
m1980 675 l0 -95 -275 0 -275 0 0 -765 0 -765 -105 0 -105 0 0 765 0 765 -272
2 -273 3 -3 79 c-2 44 -1 85 2 93 4 11 122 13 656 13 l650 0 0 -95z"/>
<path d="M5525 8970 c-122 -25 -232 -95 -298 -192 -86 -125 -113 -274 -104
-578 6 -199 17 -261 65 -358 34 -71 126 -170 189 -204 151 -82 355 -82 505 -1
105 57 200 191 235 330 25 100 25 530 0 622 -55 203 -181 332 -369 376 -68 16
-158 18 -223 5z"/>
<path d="M6940 8275 l0 -675 208 0 c141 0 229 5 275 15 171 36 284 149 344
341 15 51 18 95 18 314 0 277 -5 318 -56 426 -55 118 -154 201 -277 236 -56
15 -104 18 -289 18 l-223 0 0 -675z"/>
<path d="M11601 8533 c-77 -225 -141 -411 -141 -415 0 -5 131 -8 291 -8 229 0
290 3 287 13 -3 6 -67 193 -144 414 -76 222 -142 403 -145 403 -3 0 -70 -183
-148 -407z"/>
<path d="M2678 6036 c-56 -20 -86 -42 -104 -78 -22 -43 -30 -140 -14 -178 20
-48 83 -95 189 -141 254 -111 293 -149 271 -268 -12 -68 -34 -100 -86 -126
-47 -24 -179 -32 -243 -15 -55 15 -118 72 -133 121 -6 21 -15 39 -19 39 -19 0
-19 -24 1 -65 47 -97 142 -141 285 -133 155 10 225 77 225 215 0 103 -41 144
-222 224 -212 94 -248 125 -248 217 0 111 50 161 170 170 89 6 132 -3 170 -35
26 -21 70 -89 70 -107 0 -3 -26 -25 -57 -48 -40 -31 -52 -44 -39 -46 17 -4
126 72 126 87 0 20 -31 81 -57 111 -40 48 -95 70 -178 69 -38 0 -87 -6 -107
-13z"/>
<path d="M10271 5900 c-74 -11 -129 -51 -163 -120 -51 -102 -59 -289 -17 -426
34 -109 117 -164 249 -164 118 0 202 46 240 134 43 96 50 297 14 413 -40 129
-155 187 -323 163z m165 -35 c99 -29 142 -106 151 -270 10 -188 -29 -309 -113
-350 -48 -24 -171 -32 -228 -15 -58 17 -113 74 -132 135 -34 114 -27 321 15
403 11 20 30 47 44 60 51 48 170 65 263 37z"/>
<path d="M14087 5900 c-146 -26 -207 -127 -207 -347 0 -250 66 -347 244 -360
51 -4 88 -1 129 11 62 18 114 56 103 75 -5 8 -16 4 -37 -13 -39 -33 -88 -46
-174 -46 -171 1 -238 91 -237 324 0 182 31 264 115 308 34 18 58 22 132 22 90
0 132 -12 177 -51 12 -11 18 -12 24 -2 10 16 -37 53 -85 67 -56 16 -131 21
-184 12z"/>
<path d="M15081 5900 c-74 -11 -129 -51 -163 -120 -51 -102 -59 -289 -17 -425
35 -115 130 -172 273 -163 185 12 252 109 251 363 -1 141 -20 214 -71 274 -53
62 -154 88 -273 71z m195 -43 c80 -42 113 -114 121 -263 10 -179 -25 -297
-104 -345 -50 -31 -184 -39 -248 -15 -59 23 -102 70 -120 131 -22 72 -29 208
-16 293 26 166 98 226 262 218 42 -2 89 -11 105 -19z"/>
<path d="M17179 5900 c-134 -23 -194 -112 -206 -305 -10 -165 28 -306 97 -355
65 -46 186 -63 275 -39 52 14 119 59 106 72 -6 6 -20 2 -38 -10 -48 -35 -100
-46 -188 -41 -109 6 -155 33 -193 116 -25 53 -27 66 -27 202 0 164 10 213 57
266 41 46 75 63 145 70 82 9 167 -11 206 -47 21 -18 28 -31 21 -36 -24 -17
-284 -236 -284 -239 0 -2 8 -4 18 -4 21 0 308 239 304 254 -5 22 -72 73 -109
84 -58 16 -133 21 -184 12z"/>
<path d="M3580 5708 c0 -101 5 -217 10 -258 13 -102 55 -186 111 -222 101 -66
252 -41 313 52 49 75 58 128 63 378 5 209 4 232 -11 232 -14 0 -16 -23 -16
-202 0 -297 -20 -381 -103 -436 -35 -23 -51 -27 -117 -27 -64 0 -82 4 -112 24
-88 60 -108 140 -108 434 0 177 -2 207 -15 207 -13 0 -15 -27 -15 -182z"/>
<path d="M4650 5546 l0 -346 102 0 c221 0 323 45 348 153 17 78 -20 156 -92
193 -31 16 -32 17 -12 33 48 40 64 72 64 131 0 72 -26 114 -95 149 -44 23 -63
26 -182 29 l-133 4 0 -346z m284 293 c62 -23 92 -54 102 -105 8 -46 -20 -101
-73 -139 -23 -16 -42 -33 -42 -36 -1 -4 11 -10 27 -14 107 -27 163 -147 107
-232 -9 -14 -42 -37 -73 -51 -49 -22 -74 -27 -179 -30 l-123 -4 0 322 0 323
100 -7 c61 -4 120 -14 154 -27z"/>
<path d="M5650 5545 c0 -300 2 -345 15 -345 13 0 15 43 15 327 l0 328 135
-135 135 -135 133 133 c73 72 136 132 140 132 4 0 7 -139 7 -310 l0 -310 -235
0 c-202 0 -235 -2 -235 -15 0 -13 34 -15 245 -15 l245 0 0 345 c0 267 -3 345
-12 345 -7 0 -74 -61 -148 -135 l-135 -135 -135 135 c-74 74 -143 135 -152
135 -17 0 -18 -22 -18 -345z"/>
<path d="M6840 5545 c0 -300 2 -345 15 -345 13 0 15 45 15 345 0 300 -2 345
-15 345 -13 0 -15 -45 -15 -345z"/>
<path d="M7360 5880 c0 -6 50 -10 130 -10 l130 0 0 -335 c0 -291 2 -335 15
-335 13 0 15 44 15 335 l0 335 125 0 c77 0 125 4 125 10 0 6 -97 10 -270 10
-173 0 -270 -4 -270 -10z"/>
<path d="M9026 5853 c9 -21 72 -170 140 -330 l124 -293 0 -135 c0 -111 3 -135
14 -135 12 0 16 27 18 148 l3 147 137 318 136 317 -229 0 c-146 0 -229 -4
-229 -10 0 -6 75 -10 205 -10 157 0 205 -3 205 -12 -1 -20 -236 -569 -245
-571 -5 -1 -66 133 -136 298 -82 193 -133 301 -143 303 -14 3 -14 0 0 -35z"/>
<path d="M11163 5658 c5 -253 14 -308 61 -376 72 -104 241 -122 335 -36 78 70
101 175 101 472 0 140 -3 172 -14 172 -11 0 -15 -43 -18 -237 -6 -282 -14
-318 -82 -381 -96 -89 -260 -62 -315 50 -33 70 -41 137 -41 359 0 185 -2 209
-16 209 -14 0 -16 -24 -11 -232z"/>
<path d="M12230 5546 c0 -301 2 -346 15 -346 13 0 15 44 15 337 l0 336 99 -6
c153 -11 232 -47 251 -116 18 -68 -8 -121 -86 -170 l-40 -26 81 -175 c52 -112
88 -176 98 -178 13 -3 4 24 -38 114 -106 226 -111 237 -95 242 8 3 36 26 63
52 45 45 47 50 47 101 0 70 -31 117 -97 150 -41 20 -67 24 -180 27 l-133 4 0
-346z"/>
<path d="M15980 5546 l0 -346 68 0 c189 1 324 73 384 205 29 65 32 195 5 272
-25 72 -85 136 -164 175 -59 29 -76 32 -179 36 l-114 5 0 -347z m170 314 c176
-28 280 -143 280 -310 0 -196 -139 -320 -357 -320 l-63 0 0 320 0 320 38 0
c20 0 66 -5 102 -10z"/>
</g>
</svg>
